<svg width="285" height="35" viewBox="0 0 285 35" fill="none" xmlns="http://www.w3.org/2000/svg">
<g clip-path="url(#clip0_129_2908)">
<path d="M73.1835 12.8947C73.9828 12.8947 74.5823 12.753 74.9819 12.3988C75.3816 12.0445 75.5814 11.6194 75.5814 10.9817C75.5814 9.77729 74.7821 9.13964 73.1835 9.13964H70.1195V12.8947H73.1835ZM67.1221 1.27527H77.7129V3.82588H70.1195V6.73073H73.783C75.3816 6.73073 76.5805 7.08499 77.4465 7.79349C78.3124 8.50199 78.712 9.49389 78.712 10.84C78.712 12.2571 78.2458 13.3198 77.3132 14.0992C76.3807 14.8785 75.0485 15.2328 73.3833 15.2328H67.1221V1.27527Z" fill="#171717"/>
<path d="M81.0439 1.27527H84.0413V10.4149L90.3026 1.27527H93.1668V15.3036H90.1694V6.16393L83.9081 15.3036H81.0439V1.27527Z" fill="#171717"/>
<path d="M101.959 8.78539C102.892 8.78539 103.558 8.57284 104.024 8.14774C104.49 7.72264 104.757 7.15583 104.757 6.37648C104.757 5.59713 104.49 4.95948 104.024 4.53438C103.558 4.10928 102.825 3.89673 101.959 3.89673H99.4947V8.78539H101.959ZM102.159 1.27527C103.358 1.27527 104.357 1.48782 105.223 1.91292C106.089 2.33802 106.755 2.90482 107.221 3.68418C107.688 4.46353 107.887 5.31373 107.887 6.37648C107.887 7.36838 107.688 8.28944 107.221 9.06879C106.755 9.84814 106.089 10.4149 105.223 10.84C104.357 11.2651 103.358 11.4777 102.159 11.4777H99.4947V15.3036H96.4307V1.27527H102.159Z" fill="#171717"/>
<path d="M121.475 12.753C122.207 12.753 122.873 12.5405 123.473 12.1862C124.072 11.832 124.539 11.2652 124.872 10.6275C125.205 9.91902 125.405 9.13967 125.405 8.28946C125.405 7.43926 125.205 6.65991 124.872 5.95141C124.539 5.24291 124.072 4.74695 123.473 4.3927C122.873 4.03845 122.207 3.8259 121.475 3.8259C120.742 3.8259 120.076 4.03845 119.476 4.3927C118.877 4.74695 118.411 5.31376 118.078 5.95141C117.745 6.65991 117.545 7.43926 117.545 8.28946C117.545 9.13967 117.745 9.91902 118.078 10.6275C118.411 11.336 118.877 11.832 119.476 12.1862C120.076 12.6113 120.742 12.753 121.475 12.753ZM121.475 1.06274C122.807 1.06274 124.006 1.34614 125.005 1.9838C126.071 2.62145 126.87 3.47165 127.47 4.60525C128.069 5.73886 128.402 6.94331 128.402 8.28946C128.402 9.63562 128.069 10.9109 127.47 11.9737C126.87 13.1073 126.071 13.9575 125.005 14.5951C123.939 15.2328 122.74 15.5162 121.475 15.5162C120.276 15.5162 119.21 15.2328 118.211 14.7368C117.212 14.2409 116.412 13.5324 115.813 12.6113C115.213 11.6903 114.747 10.6984 114.614 9.49392H112.882V15.1619H109.885V1.27529H112.882V6.80161H114.681C114.88 5.66801 115.28 4.6761 115.946 3.8259C116.612 2.9757 117.412 2.2672 118.344 1.77125C119.277 1.27529 120.342 1.06274 121.475 1.06274Z" fill="#171717"/>
<path d="M137.928 8.00611C138.66 8.28951 139.26 8.71462 139.726 9.28142C140.126 9.84822 140.392 10.5567 140.392 11.3361C140.392 12.1863 140.126 12.8948 139.593 13.5324C139.06 14.1701 138.327 14.666 137.461 14.9494C136.595 15.3037 135.596 15.4454 134.53 15.4454C133.598 15.4454 132.732 15.3037 131.866 15.0911C131 14.8786 130.134 14.4535 129.335 13.9575L130.267 11.6195C130.867 11.9737 131.466 12.2571 132.199 12.4697C132.865 12.6822 133.598 12.7531 134.264 12.7531C135.197 12.7531 135.929 12.6114 136.529 12.2571C137.128 11.9029 137.395 11.4069 137.395 10.7693C137.395 10.2733 137.195 9.84822 136.795 9.56482C136.396 9.28142 135.863 9.13972 135.13 9.13972H131.933V6.87251H134.93C135.53 6.87251 135.996 6.73081 136.396 6.44741C136.729 6.16401 136.928 5.80976 136.928 5.31381C136.928 4.747 136.662 4.3219 136.196 4.0385C135.729 3.7551 135.063 3.6134 134.264 3.6134C133.665 3.6134 133.065 3.68425 132.466 3.8968C131.866 4.0385 131.267 4.3219 130.734 4.67615L129.601 2.12555C131 1.34619 132.466 0.991943 134.131 0.991943C135.13 0.991943 136.129 1.13364 136.995 1.48789C137.861 1.84215 138.527 2.26725 139.06 2.9049C139.593 3.54255 139.859 4.25105 139.859 5.0304C139.859 5.66806 139.659 6.30571 139.326 6.80166C138.993 7.29761 138.527 7.72271 137.928 8.00611Z" fill="#171717"/>
<path d="M149.051 12.753C149.85 12.753 150.517 12.5405 151.183 12.1862C151.782 11.832 152.315 11.2652 152.648 10.6275C152.981 9.91902 153.181 9.13967 153.181 8.28946C153.181 7.43926 152.981 6.65991 152.648 5.95141C152.315 5.24291 151.782 4.74695 151.183 4.3927C150.583 4.03845 149.85 3.8259 149.051 3.8259C148.252 3.8259 147.586 4.03845 146.92 4.3927C146.32 4.74695 145.787 5.31376 145.454 5.95141C145.121 6.65991 144.921 7.43926 144.921 8.28946C144.921 9.13967 145.121 9.91902 145.454 10.6275C145.787 11.336 146.32 11.832 146.92 12.1862C147.586 12.6113 148.252 12.753 149.051 12.753ZM149.051 15.5162C147.652 15.5162 146.453 15.2328 145.388 14.5951C144.322 13.9575 143.456 13.1073 142.79 11.9737C142.19 10.8401 141.857 9.63562 141.857 8.28946C141.857 6.94331 142.19 5.66801 142.79 4.60525C143.389 3.47165 144.255 2.62145 145.388 1.9838C146.453 1.34614 147.719 1.06274 149.051 1.06274C150.383 1.06274 151.649 1.34614 152.715 1.9838C153.78 2.62145 154.646 3.47165 155.312 4.60525C155.912 5.73886 156.245 6.94331 156.245 8.28946C156.245 9.63562 155.912 10.9109 155.312 11.9737C154.713 13.1073 153.847 13.9575 152.715 14.5951C151.649 15.2328 150.383 15.5162 149.051 15.5162Z" fill="#171717"/>
<path d="M164.97 12.8947C166.369 12.8947 167.102 12.3279 167.102 11.1234C167.102 9.98984 166.369 9.35219 164.97 9.35219H161.64V12.8947H164.97ZM161.64 7.08498H164.504C165.17 7.08498 165.637 6.94328 166.036 6.65988C166.369 6.37648 166.569 5.95138 166.569 5.38458C166.569 4.81778 166.369 4.39268 166.036 4.10928C165.703 3.82588 165.17 3.68418 164.571 3.68418H161.64V7.08498ZM167.701 8.00604C168.501 8.28944 169.1 8.64369 169.566 9.28134C169.966 9.84814 170.233 10.5566 170.233 11.4068C170.233 12.6822 169.766 13.6032 168.9 14.3117C168.034 15.0202 166.769 15.3745 165.104 15.3745H158.643V1.27527H164.771C166.303 1.27527 167.502 1.55867 168.367 2.19632C169.233 2.83397 169.633 3.68418 169.633 4.88863C169.633 5.59713 169.5 6.16393 169.167 6.73073C168.767 7.29754 168.301 7.72264 167.701 8.00604Z" fill="#171717"/>
<path d="M180.557 9.84814L178.492 4.46353L176.428 9.84814H180.557ZM181.49 12.3279H175.362L174.163 15.3036H171.032L176.96 1.27527H179.958L185.819 15.3036H182.622L181.49 12.3279Z" fill="#171717"/>
<path d="M191.881 3.96758C191.015 3.96758 190.349 4.18013 189.883 4.60523C189.416 5.03033 189.217 5.66798 189.217 6.51818C189.217 7.29753 189.416 7.93519 189.883 8.43114C190.349 8.85624 190.948 9.06879 191.814 9.06879H194.479V3.96758H191.881ZM197.476 1.27527V15.3036H194.479V11.6194H191.681L189.35 15.3036H186.153L188.883 11.0526C188.018 10.6983 187.285 10.0607 186.819 9.28134C186.352 8.50199 186.086 7.58094 186.086 6.44733C186.086 5.38458 186.286 4.46353 186.752 3.68418C187.218 2.90482 187.884 2.33802 188.75 1.91292C189.616 1.48782 190.615 1.27527 191.748 1.27527H197.476Z" fill="#171717"/>
<path d="M211.131 9.63559H209.066V15.3036H206.002V1.27527H209.066V6.94328H211.264L214.661 1.27527H217.925L213.595 8.07689L218.058 15.3036H214.594L211.131 9.63559Z" fill="#171717"/>
<path d="M227.183 9.84814L225.118 4.46353L223.054 9.84814H227.183ZM228.116 12.3279H221.988L220.789 15.3036H217.658L223.586 1.27527H226.584L232.445 15.3036H229.248L228.116 12.3279Z" fill="#171717"/>
<path d="M243.635 3.96758H239.439V15.3036H236.375V3.96758H232.179V1.27527H243.635V3.96758Z" fill="#171717"/>
<path d="M256.825 1.27527L251.23 12.3279C250.697 13.3907 250.031 14.17 249.298 14.7368C248.565 15.3036 247.699 15.587 246.833 15.587C246.167 15.587 245.435 15.4453 244.702 15.0911L245.435 12.6113C245.967 12.753 246.367 12.8947 246.767 12.8947C247.166 12.8947 247.499 12.8239 247.766 12.6113C248.099 12.3987 248.365 12.1153 248.565 11.6902L248.698 11.5485L243.503 1.27527H246.767L250.23 8.78539L253.827 1.27527H256.825Z" fill="#171717"/>
<path d="M270.346 1.27527V15.3036H267.349V9.56474H261.354V15.3036H258.29V1.27527H261.354V6.80158H267.349V1.27527H270.346Z" fill="#171717"/>
<path d="M279.405 12.8947C280.205 12.8947 280.804 12.6821 281.27 12.257C281.737 11.8319 281.936 11.2651 281.936 10.4858C281.936 8.99794 281.071 8.28944 279.405 8.28944H276.674V12.8947H279.405ZM280.005 5.88053C281.603 5.88053 282.869 6.23478 283.668 7.01413C284.534 7.79349 284.934 8.92709 284.934 10.4149C284.934 11.9736 284.468 13.1781 283.535 14.0283C282.603 14.8785 281.27 15.3036 279.539 15.3036H273.61V1.27527H276.608V5.88053H280.005Z" fill="#171717"/>
<path d="M68.7879 28.5527H67.3225V31.8118H66.5898V24.7976H67.3225V27.915H68.7879L71.0526 24.7976H71.7853L69.3208 28.1984L71.9186 31.8118H71.1192L68.7879 28.5527Z" fill="#171717"/>
<path d="M75.8477 31.174C76.3805 31.174 76.8468 31.0323 77.2464 30.8198C77.6461 30.5364 77.9791 30.253 78.2456 29.757C78.512 29.3319 78.5786 28.836 78.5786 28.2692C78.5786 27.7024 78.4454 27.2064 78.2456 26.7813C77.9791 26.3562 77.6461 26.002 77.2464 25.7186C76.8468 25.4352 76.3805 25.3643 75.8477 25.3643C75.3148 25.3643 74.8485 25.506 74.4489 25.7186C74.0492 26.002 73.7162 26.2854 73.4497 26.7813C73.1833 27.2064 73.1167 27.7024 73.1167 28.2692C73.1167 28.836 73.2499 29.3319 73.4497 29.757C73.7162 30.1821 74.0492 30.5364 74.4489 30.8198C74.8485 31.0323 75.3148 31.174 75.8477 31.174ZM75.8477 31.8117C75.1816 31.8117 74.5821 31.67 74.0492 31.3157C73.5163 31.0323 73.1167 30.6072 72.7836 30.0404C72.5172 29.4736 72.3174 28.9068 72.3174 28.1983C72.3174 27.4898 72.4506 26.923 72.7836 26.3562C73.0501 25.7894 73.5163 25.3643 74.0492 25.0809C74.5821 24.7975 75.1816 24.585 75.8477 24.585C76.5137 24.585 77.1132 24.7267 77.5795 25.0101C78.1124 25.2935 78.512 25.7186 78.8451 26.2854C79.1781 26.8522 79.3113 27.419 79.3113 28.1275C79.3113 28.7651 79.1781 29.4028 78.8451 29.9696C78.512 30.5364 78.1124 30.9615 77.5795 31.2449C77.1132 31.67 76.5137 31.8117 75.8477 31.8117Z" fill="#171717"/>
<path d="M87.8373 24.7976V31.8118H87.1712V26.2146L84.5734 30.8907H84.2404L81.6427 26.2146V31.8118H80.9766V24.7976H81.576L84.3736 29.9697L87.2378 24.7976H87.8373Z" fill="#171717"/>
<path d="M95.5647 24.7976V31.8118H94.8986V25.4353H90.7022V31.8118H90.0361V24.7976H95.5647Z" fill="#171717"/>
<path d="M102.824 24.7976V31.8118H102.158V25.4353H98.961L98.8944 27.7733C98.8944 28.7652 98.7612 29.5446 98.6946 30.1114C98.5613 30.6782 98.4281 31.1741 98.1617 31.4575C97.8952 31.7409 97.6288 31.8826 97.2292 31.8826C97.0293 31.8826 96.8961 31.8826 96.6963 31.8118L96.7629 31.1741C96.8961 31.1741 96.9627 31.245 97.0959 31.245C97.3624 31.245 97.6288 31.1033 97.762 30.8907C97.9619 30.6782 98.0951 30.3239 98.1617 29.828C98.2283 29.332 98.2949 28.6944 98.3615 27.915V24.7976H102.824Z" fill="#171717"/>
<path d="M109.685 31.1741V31.8118H105.022V24.7976H109.552V25.4353H105.755V27.915H109.152V28.5527H105.755V31.1741H109.685Z" fill="#171717"/>
<path d="M113.416 28.5527H111.95V31.8118H111.218V24.7976H111.95V27.915H113.416L115.681 24.7976H116.413L113.949 28.1984L116.546 31.8118H115.747L113.416 28.5527Z" fill="#171717"/>
<path d="M120.476 31.8117C119.81 31.8117 119.211 31.67 118.744 31.3866C118.211 31.1032 117.812 30.6781 117.545 30.1113C117.279 29.5445 117.079 28.9777 117.079 28.2692C117.079 27.5607 117.212 26.9939 117.545 26.4271C117.812 25.8603 118.278 25.4352 118.811 25.1518C119.344 24.8684 119.943 24.7267 120.609 24.7267C121.076 24.7267 121.542 24.7975 121.942 25.0101C122.341 25.1518 122.674 25.4352 123.007 25.7894L122.541 26.2854C122.008 25.7186 121.409 25.4352 120.609 25.4352C120.076 25.4352 119.61 25.5769 119.211 25.7894C118.811 26.0728 118.478 26.3562 118.211 26.8522C117.945 27.2773 117.878 27.7732 117.878 28.34C117.878 28.9068 118.012 29.4028 118.211 29.8279C118.411 30.253 118.811 30.6072 119.211 30.8906C119.61 31.1741 120.143 31.2449 120.609 31.2449C121.409 31.2449 122.075 30.9615 122.541 30.3947L123.007 30.8906C122.741 31.2449 122.341 31.4575 121.942 31.67C121.409 31.7409 121.009 31.8117 120.476 31.8117Z" fill="#171717"/>
<path d="M130.734 29.3319L129.135 25.5769L127.537 29.3319H130.734ZM131 29.8987H127.337L126.537 31.7409H125.805L128.802 24.7267H129.468L132.466 31.7409H131.733L131 29.8987Z" fill="#171717"/>
<path d="M139.326 24.7976V31.8118H138.66V25.4353H134.464V31.8118H133.798V24.7976H139.326Z" fill="#171717"/>
<path d="M145.521 29.3319L143.922 25.5769L142.324 29.3319H145.521ZM145.787 29.8987H142.124L141.324 31.7409H140.592L143.589 24.7267H144.255L147.253 31.7409H146.52L145.787 29.8987Z" fill="#171717"/>
<path d="M150.983 28.9069C151.649 28.9069 152.115 28.7652 152.448 28.4818C152.782 28.1984 152.981 27.7733 152.981 27.2065C152.981 26.6397 152.782 26.2146 152.448 25.9312C152.115 25.6478 151.583 25.5061 150.983 25.5061H149.251V28.9778H150.983V28.9069ZM150.983 24.7976C151.849 24.7976 152.448 25.0102 152.981 25.4353C153.448 25.8604 153.714 26.4272 153.714 27.2065C153.714 27.9859 153.448 28.5527 152.981 28.9778C152.515 29.4029 151.849 29.6154 150.983 29.6154H149.185V31.8118H148.519V24.7976H150.983Z" fill="#171717"/>
<path d="M159.243 25.4353H156.911V31.8118H156.245V25.4353H153.914V24.7976H159.243V25.4353Z" fill="#171717"/>
<path d="M164.038 29.3319L162.44 25.5769L160.841 29.3319H164.038ZM164.305 29.8987H160.641L159.842 31.7409H159.109L162.107 24.7267H162.773L165.77 31.7409H165.038L164.305 29.8987Z" fill="#171717"/>
<path d="M173.963 24.7976V31.8118H173.297V26.2146L170.699 30.8907H170.366L167.769 26.2146V31.8118H167.103V24.7976H167.702L170.5 29.9697L173.364 24.7976H173.963Z" fill="#171717"/>
<path d="M180.824 31.1741V31.8118H176.161V24.7976H180.691V25.4353H176.827V27.915H180.224V28.5527H176.827V31.1741H180.824Z" fill="#171717"/>
<path d="M187.817 24.7976V31.8118H187.151V28.5527H183.022V31.8118H182.355V24.7976H183.022V27.915H187.151V24.7976H187.817Z" fill="#171717"/>
<path d="M194.345 25.4353H192.08V31.8118H191.348V25.4353H189.083V24.7976H194.345V25.4353Z" fill="#171717"/>
<path d="M198.408 31.174C198.941 31.174 199.407 31.0323 199.807 30.8198C200.207 30.5364 200.54 30.253 200.806 29.757C201.073 29.3319 201.139 28.836 201.139 28.2692C201.139 27.7024 201.006 27.2064 200.806 26.7813C200.54 26.3562 200.207 26.002 199.807 25.7186C199.407 25.4352 198.941 25.3643 198.408 25.3643C197.875 25.3643 197.409 25.506 197.009 25.7186C196.61 26.002 196.277 26.2854 196.01 26.7813C195.744 27.2064 195.677 27.7024 195.677 28.2692C195.677 28.836 195.81 29.3319 196.01 29.757C196.277 30.1821 196.61 30.5364 197.009 30.8198C197.409 31.0323 197.875 31.174 198.408 31.174ZM198.408 31.8117C197.742 31.8117 197.143 31.67 196.61 31.3157C196.077 31.0323 195.677 30.6072 195.344 30.0404C195.078 29.4736 194.878 28.9068 194.878 28.1983C194.878 27.4898 195.011 26.923 195.344 26.3562C195.611 25.7894 196.077 25.3643 196.61 25.0809C197.143 24.7975 197.742 24.585 198.408 24.585C199.074 24.585 199.674 24.7267 200.14 25.0101C200.673 25.2935 201.073 25.7186 201.406 26.2854C201.739 26.8522 201.872 27.419 201.872 28.1275C201.872 28.7651 201.739 29.4028 201.406 29.9696C201.073 30.5364 200.673 30.9615 200.14 31.2449C199.607 31.67 199.008 31.8117 198.408 31.8117Z" fill="#171717"/>
<path d="M206.402 31.1741C207.534 31.1741 208.133 30.749 208.133 29.828C208.133 28.9778 207.534 28.4818 206.402 28.4818H204.203V31.1741H206.402ZM204.203 27.915H206.202C206.735 27.915 207.068 27.7733 207.401 27.5608C207.667 27.3482 207.8 26.994 207.8 26.5689C207.8 26.1438 207.667 25.8604 207.401 25.577C207.134 25.3644 206.735 25.2227 206.202 25.2227H204.203V27.915ZM207.401 28.1984C207.867 28.2693 208.2 28.4818 208.466 28.7652C208.733 29.0486 208.799 29.4029 208.799 29.8988C208.799 30.5365 208.6 30.9616 208.2 31.3158C207.8 31.6701 207.201 31.8118 206.402 31.8118H203.471V24.7976H206.202C206.934 24.7976 207.467 24.9393 207.867 25.2227C208.267 25.5061 208.466 26.0021 208.466 26.5689C208.466 26.994 208.4 27.2774 208.2 27.5608C208 27.8442 207.734 28.0567 207.401 28.1984Z" fill="#171717"/>
<path d="M28.7746 14.9494L33.304 8.28947L43.695 19.1296C43.8948 19.1296 44.1612 19.1296 44.3611 19.2004C44.7607 19.2713 45.1604 19.2713 45.4934 19.3421C46.6258 19.4838 47.7581 19.9089 48.7572 20.5466L32.9043 3.96761L27.0427 12.6822L17.2512 0L4.3291 21.8927L6.5938 23.3806L17.5843 4.81781L31.0393 22.3887C31.772 21.8927 32.5713 21.4676 33.4372 21.0425L28.7746 14.9494Z" fill="#171717"/>
<path d="M49.9567 21.5385C49.6236 21.1842 49.224 20.83 48.8243 20.5466C47.8252 19.9089 46.7595 19.4838 45.5605 19.3421C45.2274 19.2713 44.8278 19.2713 44.4281 19.2004H43.8287L43.6954 19.1296C43.2958 19.1296 42.9627 19.0587 42.5631 19.0587C41.2309 19.1296 39.6323 19.2713 37.9671 19.6255C36.6349 19.9089 35.2361 20.334 33.8373 20.9008C33.7041 20.9717 33.5709 21.0425 33.4377 21.0425C32.5718 21.3968 31.7724 21.8927 31.0397 22.3887C29.1747 23.664 27.6427 25.2227 26.1773 26.7105C23.5796 29.332 21.3815 31.5992 17.5848 32.0243C10.5908 32.8037 1.532 26.498 1.4654 26.4271L0 28.836C0.399653 29.1194 8.79238 35 16.3858 35C16.9187 35 17.3849 35 17.8512 34.9292C22.5804 34.4332 25.3114 31.5284 27.9757 28.836C29.974 26.7814 31.8391 24.8684 34.57 23.664C34.6366 23.664 34.7032 23.5931 34.7698 23.5931C41.2309 20.9717 47.0259 22.3178 47.0925 22.3178L51.7551 23.4514L49.9567 21.5385Z" fill="#1CA8B1"/>
</g>
<defs>
<clipPath id="clip0_129_2908">
<rect width="285" height="35" fill="white"/>
</clipPath>
</defs>
</svg>
