<svg width="0" height="0" class="hidden">
  <symbol fill="none" xmlns="http://www.w3.org/2000/svg" viewBox="0 0 8 8" id="arrow-angle">
    <g clip-path="url(#clip0_129_2899)">
      <path d="M0.666667 8C0.866667 8 1 7.93333 1.13333 7.8L7.8 1.13333C8.06667 0.866666 8.06667 0.466667 7.8 0.2C7.53333 -0.0666667 7.13333 -0.0666667 6.86667 0.2L0.2 6.86667C-0.0666666 7.13333 -0.0666666 7.53333 0.2 7.8C0.333333 7.93333 0.466667 8 0.666667 8Z" fill="currentColor"></path>
      <path d="M7.36364 7C7.74545 7 8 6.74545 8 6.36364V0.636364C8 0.254545 7.74545 0 7.36364 0H1.63636C1.25455 0 1 0.254545 1 0.636364C1 1.01818 1.25455 1.27273 1.63636 1.27273H6.72727V6.36364C6.72727 6.74545 6.98182 7 7.36364 7Z" fill="currentColor"></path>
    </g>
    <defs>
      <clipPath id="clip0_129_2899">
        <rect width="8" height="8" fill="currentColor"></rect>
      </clipPath>
    </defs>
  </symbol>
  <symbol fill="none" xmlns="http://www.w3.org/2000/svg" viewBox="0 0 12 12" id="clock">
    <path d="M12 6C12 7.5913 11.3679 9.11742 10.2426 10.2426C9.11742 11.3679 7.5913 12 6 12C4.4087 12 2.88258 11.3679 1.75736 10.2426C0.632141 9.11742 0 7.5913 0 6C0 5.86739 0.0526784 5.74021 0.146447 5.64645C0.240215 5.55268 0.367392 5.5 0.5 5.5C0.632608 5.5 0.759785 5.55268 0.853553 5.64645C0.947322 5.74021 1 5.86739 1 6C1 6.98891 1.29324 7.95561 1.84265 8.77785C2.39206 9.6001 3.17295 10.241 4.08658 10.6194C5.00021 10.9978 6.00555 11.0969 6.97545 10.9039C7.94536 10.711 8.83627 10.2348 9.53553 9.53553C10.2348 8.83627 10.711 7.94536 10.9039 6.97545C11.0969 6.00555 10.9978 5.00021 10.6194 4.08658C10.241 3.17295 9.6001 2.39206 8.77785 1.84265C7.95561 1.29324 6.98891 1 6 1C5.86739 1 5.74021 0.947322 5.64645 0.853553C5.55268 0.759785 5.5 0.632608 5.5 0.5C5.5 0.367392 5.55268 0.240215 5.64645 0.146447C5.74021 0.0526784 5.86739 0 6 0C7.59077 0.00172054 9.1159 0.634414 10.2407 1.75926C11.3656 2.88411 11.9983 4.40923 12 6ZM5.1385 5.5H4C3.86739 5.5 3.74021 5.55268 3.64645 5.64645C3.55268 5.74021 3.5 5.86739 3.5 6C3.5 6.13261 3.55268 6.25979 3.64645 6.35355C3.74021 6.44732 3.86739 6.5 4 6.5H5.1385C5.21486 6.63261 5.32072 6.74587 5.44788 6.831C5.57504 6.91613 5.72009 6.97084 5.8718 6.9909C6.0235 7.01097 6.17779 6.99584 6.32271 6.94669C6.46763 6.89755 6.59929 6.8157 6.70749 6.70749C6.8157 6.59929 6.89755 6.46763 6.94669 6.32271C6.99584 6.17779 7.01097 6.0235 6.9909 5.8718C6.97084 5.72009 6.91613 5.57504 6.831 5.44788C6.74587 5.32072 6.63261 5.21486 6.5 5.1385V3.5C6.5 3.36739 6.44732 3.24021 6.35355 3.14645C6.25979 3.05268 6.13261 3 6 3C5.86739 3 5.74021 3.05268 5.64645 3.14645C5.55268 3.24021 5.5 3.36739 5.5 3.5V5.1385C5.35021 5.22564 5.22564 5.35021 5.1385 5.5ZM0.9135 4.392C1.01239 4.392 1.10906 4.36268 1.19129 4.30773C1.27351 4.25279 1.3376 4.1747 1.37544 4.08334C1.41328 3.99198 1.42319 3.89145 1.40389 3.79445C1.3846 3.69746 1.33698 3.60837 1.26705 3.53845C1.19713 3.46852 1.10804 3.4209 1.01105 3.40161C0.914055 3.38231 0.813521 3.39222 0.722158 3.43006C0.630795 3.4679 0.552706 3.53199 0.497765 3.61421C0.442824 3.69644 0.4135 3.79311 0.4135 3.892C0.4135 4.02461 0.466178 4.15179 0.559947 4.24555C0.653715 4.33932 0.780892 4.392 0.9135 4.392ZM2.1105 2.6035C2.20939 2.6035 2.30606 2.57418 2.38829 2.51923C2.47051 2.46429 2.5346 2.3862 2.57244 2.29484C2.61028 2.20348 2.62019 2.10295 2.60089 2.00595C2.5816 1.90896 2.53398 1.81987 2.46405 1.74995C2.39413 1.68002 2.30504 1.6324 2.20805 1.61311C2.11105 1.59381 2.01052 1.60372 1.91916 1.64156C1.8278 1.6794 1.74971 1.74349 1.69477 1.82571C1.63982 1.90794 1.6105 2.00461 1.6105 2.1035C1.6105 2.23611 1.66318 2.36329 1.75695 2.45705C1.85071 2.55082 1.97789 2.6035 2.1105 2.6035ZM3.8895 1.4205C3.98839 1.4205 4.08506 1.39118 4.16728 1.33623C4.24951 1.28129 4.3136 1.2032 4.35144 1.11184C4.38928 1.02048 4.39919 0.919945 4.37989 0.822955C4.3606 0.725964 4.31298 0.636873 4.24305 0.566947C4.17313 0.49702 4.08404 0.4494 3.98705 0.430107C3.89005 0.410815 3.78952 0.420716 3.69816 0.45856C3.6068 0.496404 3.52871 0.56049 3.47377 0.642715C3.41882 0.724939 3.3895 0.821609 3.3895 0.9205C3.3895 1.05311 3.44218 1.18029 3.53595 1.27405C3.62971 1.36782 3.75689 1.4205 3.8895 1.4205Z" fill="currentColor"></path>
  </symbol>
  <symbol fill="none" xmlns="http://www.w3.org/2000/svg" viewBox="0 0 18 18" id="income">
    <path d="M13.875 10.875C14.496 10.875 15 11.379 15 12C15 12.621 14.496 13.125 13.875 13.125C13.254 13.125 12.75 12.621 12.75 12C12.75 11.379 13.254 10.875 13.875 10.875ZM17.25 7.5C16.8353 7.5 16.5 7.836 16.5 8.25V15.75C16.5 16.164 16.164 16.5 15.75 16.5H3.75C2.5095 16.5 1.5 15.4905 1.5 14.25V6.75C1.5 6.75 1.5 6.747 1.5 6.74625C2.1405 7.22625 2.92725 7.5 3.74925 7.5H9.75C10.1648 7.5 10.5 7.164 10.5 6.75C10.5 6.336 10.1648 6 9.75 6H3.75C3.108 6 2.51025 5.71425 2.08725 5.247C2.499 4.79175 3.0885 4.5 3.75 4.5H9C9.41475 4.5 9.75 4.164 9.75 3.75C9.75 3.336 9.41475 3 9 3H3.75C1.668 2.9955 0.015 4.728 0 6.75V14.25C0 16.3177 1.68225 18 3.75 18H15.75C16.9905 18 18 16.9905 18 15.75V8.25C18 7.836 17.6647 7.5 17.25 7.5ZM13.1227 7.03875C13.734 7.65 14.7338 7.65525 15.3458 7.0455L17.0228 5.41275C17.3197 5.124 17.3257 4.64925 17.0378 4.35225C16.7475 4.05525 16.2727 4.0485 15.9772 4.338L15 5.289V0.75C15 0.336 14.6648 0 14.25 0C13.8352 0 13.5 0.336 13.5 0.75V5.3025L12.5272 4.34175C12.2317 4.05075 11.7585 4.053 11.466 4.3485C11.175 4.64325 11.178 5.118 11.4727 5.409L13.1227 7.03875Z" fill="currentColor"></path>
  </symbol>
  <symbol fill="none" xmlns="http://www.w3.org/2000/svg" viewBox="0 0 18 18" id="list">
    <path d="M16.0875 4.152L13.4738 1.53825C12.4823 0.546 11.1638 0 9.76125 0H6.375C4.67025 0 3.17775 1.15125 2.74725 2.799C2.64225 3.1995 2.88225 3.60975 3.28275 3.71475C3.68625 3.8175 4.09425 3.579 4.19775 3.1785C4.4565 2.19075 5.352 1.5 6.375 1.5H9.76125C9.885 1.5 10.0035 1.524 10.125 1.53525V5.25C10.125 6.4905 11.1345 7.5 12.375 7.5H16.0882C16.1003 7.6215 16.125 7.7415 16.125 7.86375V14.25C16.125 15.4905 15.1155 16.5 13.875 16.5H6.375C5.8575 16.5 5.3715 16.329 4.96875 16.0072C4.64625 15.75 4.1745 15.8003 3.91425 16.1227C3.6555 16.4468 3.70725 16.9185 4.0305 17.1772C4.692 17.7075 5.5245 18 6.37425 18H13.8743C15.942 18 17.6243 16.3177 17.6243 14.25V7.86375C17.6243 6.462 17.0782 5.1435 16.0868 4.152H16.0875ZM12.375 6C11.9618 6 11.625 5.664 11.625 5.25V2.01225C11.907 2.175 12.1762 2.36175 12.4125 2.598L15.0262 5.21175C15.2595 5.445 15.4455 5.71575 15.6083 5.99925H12.3743L12.375 6ZM7.125 11.9887H13.125C13.539 11.9887 13.875 12.324 13.875 12.7388C13.875 13.1535 13.539 13.4888 13.125 13.4888H7.125C6.711 13.4888 6.375 13.1535 6.375 12.7388C6.375 12.324 6.711 11.9887 7.125 11.9887ZM4.875 14.124V10.5615C5.55525 10.011 6 9.18 6 8.23875C6 6.58425 4.6545 5.23875 3 5.23875C1.3455 5.23875 0 6.58425 0 8.23875C0 9.18 0.44475 10.011 1.125 10.5615V14.124C1.125 14.5913 1.71825 14.7915 2.00175 14.4203L3 13.113L3.99825 14.4203C4.28175 14.7915 4.875 14.5913 4.875 14.124ZM3 6.73875C3.82725 6.73875 4.5 7.4115 4.5 8.23875C4.5 9.066 3.82725 9.73875 3 9.73875C2.17275 9.73875 1.5 9.066 1.5 8.23875C1.5 7.4115 2.17275 6.73875 3 6.73875ZM7.875 10.4887C7.461 10.4887 7.125 10.1535 7.125 9.73875C7.125 9.324 7.461 8.98875 7.875 8.98875H13.125C13.539 8.98875 13.875 9.324 13.875 9.73875C13.875 10.1535 13.539 10.4887 13.125 10.4887H7.875Z" fill="currentColor"></path>
  </symbol>
  <symbol fill="none" xmlns="http://www.w3.org/2000/svg" viewBox="0 0 16 16" id="project">
    <path d="M6.66667 15.3333C6.66667 15.702 6.368 16 6 16H3.33333C1.49533 16 0 14.5046 0 12.6666V6.48265C0 5.37265 0.549333 4.33998 1.46933 3.71931L6.13533 0.569979C7.268 -0.194021 8.732 -0.194021 9.86467 0.569979L14.6667 3.83198C15.3273 4.33198 15.7947 5.06265 15.9447 5.87931C16.0113 6.24131 15.772 6.58864 15.4093 6.65531C15.0467 6.72465 14.7 6.48198 14.6333 6.11998C14.5367 5.59531 14.228 5.12331 13.7853 4.82465L9.11867 1.67531C8.43933 1.21598 7.56133 1.21598 6.882 1.67531L2.21467 4.82465C1.66267 5.19731 1.33333 5.81598 1.33333 6.48198V12.666C1.33333 13.7686 2.23067 14.666 3.33333 14.666H6C6.368 14.666 6.66667 14.9646 6.66667 15.3333ZM16 11.3333C16 13.906 13.9067 16 11.3333 16C8.76 16 6.66667 13.906 6.66667 11.3333C6.66667 8.76064 8.76 6.66665 11.3333 6.66665C13.9067 6.66665 16 8.76064 16 11.3333ZM14.6667 11.3333C14.6667 9.49531 13.1713 7.99998 11.3333 7.99998C9.49533 7.99998 8 9.49531 8 11.3333C8 13.1713 9.49533 14.6666 11.3333 14.6666C13.1713 14.6666 14.6667 13.1713 14.6667 11.3333ZM12.5387 10.506L11.0567 11.9286C10.9613 12.024 10.8047 12.0233 10.7087 11.9286L9.954 11.19C9.69133 10.9333 9.26933 10.9373 9.01133 11.2006C8.75333 11.464 8.758 11.8853 9.02133 12.1433L9.776 12.882C10.082 13.1813 10.484 13.3313 10.8853 13.3313C11.2867 13.3313 11.686 13.1813 11.9873 12.884L13.462 11.468C13.7273 11.2126 13.7367 10.7906 13.4813 10.5253C13.2267 10.26 12.804 10.2513 12.5387 10.506Z" fill="currentColor"></path>
  </symbol>
  <symbol fill="none" xmlns="http://www.w3.org/2000/svg" viewBox="0 0 16 16" id="rent">
    <path d="M4.66667 15.3333C4.66667 15.7013 4.368 15.9999 4 15.9999H3.33333C1.49533 15.9999 0 14.5046 0 12.6666V6.48261C0 5.37261 0.549333 4.33995 1.46867 3.71928L6.13533 0.569948C7.268 -0.194052 8.732 -0.194052 9.864 0.569948L14.5307 3.71928C14.7407 3.86128 14.9353 4.02728 15.1073 4.21261C15.358 4.48261 15.3427 4.90395 15.0727 5.15461C14.8027 5.40461 14.3813 5.38995 14.1307 5.11995C14.0273 5.00861 13.9113 4.90995 13.7847 4.82461L9.11867 1.67528C8.43933 1.21661 7.56133 1.21661 6.88133 1.67528L2.21467 4.82461C1.66267 5.19728 1.33333 5.81661 1.33333 6.48261V12.6666C1.33333 13.7693 2.23067 14.6666 3.33333 14.6666H4C4.368 14.6666 4.66667 14.9653 4.66667 15.3333ZM11.958 8.63595C11.5673 9.02662 11.5673 9.65995 11.958 10.0499C12.3487 10.4399 12.982 10.4406 13.372 10.0499C13.7627 9.65928 13.7627 9.02595 13.372 8.63595C12.9813 8.24595 12.348 8.24528 11.958 8.63595ZM14.9247 12.2693C14.146 13.0479 13.0673 13.4286 11.9827 13.3253L9.894 15.4139C9.51667 15.7913 9.014 15.9993 8.48 15.9993H7.34C6.60733 15.9993 6.00933 15.4039 6.00667 14.6719L6.00067 13.3466C6 13.0779 6.10333 12.8259 6.29267 12.6359C6.482 12.4466 6.73333 12.3419 7.00067 12.3419H7.32733L7.33 12.0013C7.334 11.4539 7.78267 11.0086 8.33 11.0086H8.83733V10.7466C8.364 9.20661 8.928 7.57128 10.2627 6.64662C11.4647 5.81261 13.092 5.78795 14.3107 6.58395C16.2573 7.78262 16.5733 10.6953 14.9253 12.2673L14.9247 12.2693ZM14.6527 9.43395C14.5787 8.71995 14.198 8.10528 13.5807 7.70195C12.8113 7.19862 11.7827 7.21661 11.0213 7.74328C10.15 8.34728 9.794 9.42595 10.1347 10.4273C10.158 10.4966 10.17 10.5686 10.17 10.6419V11.6753C10.17 12.0433 9.87133 12.3419 9.50333 12.3419H8.66L8.65533 13.0133C8.65267 13.3793 8.35467 13.6753 7.98867 13.6753H7.33533L7.33933 14.6659H8.47933C8.658 14.6659 8.82533 14.5966 8.95133 14.4706L11.276 12.1459C11.4333 11.9893 11.6587 11.9206 11.8767 11.9633C12.6433 12.1146 13.4307 11.8766 13.982 11.3253C14.4813 10.8259 14.726 10.1359 14.6527 9.43261V9.43395Z" fill="currentColor"></path>
  </symbol>
  <symbol fill="none" xmlns="http://www.w3.org/2000/svg" viewBox="0 0 17 17" id="comfort">
    <path d="M14.1648 5.66667C13.4134 5.66667 12.6927 5.36816 12.1614 4.8368C11.63 4.30545 11.3315 3.58478 11.3315 2.83333C11.3315 2.08189 11.63 1.36122 12.1614 0.829864C12.6927 0.298511 13.4134 0 14.1648 0C14.9163 0 15.6369 0.298511 16.1683 0.829864C16.6996 1.36122 16.9982 2.08189 16.9982 2.83333C16.9982 3.58478 16.6996 4.30545 16.1683 4.8368C15.6369 5.36816 14.9163 5.66667 14.1648 5.66667ZM14.1648 1.41667C13.7891 1.41667 13.4288 1.56592 13.1631 1.8316C12.8974 2.09728 12.7482 2.45761 12.7482 2.83333C12.7482 3.20906 12.8974 3.56939 13.1631 3.83507C13.4288 4.10074 13.7891 4.25 14.1648 4.25C14.5405 4.25 14.9009 4.10074 15.1666 3.83507C15.4322 3.56939 15.5815 3.20906 15.5815 2.83333C15.5815 2.45761 15.4322 2.09728 15.1666 1.8316C14.9009 1.56592 14.5405 1.41667 14.1648 1.41667ZM15.1933 17H8.91537C8.5978 17.0028 8.28512 16.9218 8.00889 16.765C7.73267 16.6083 7.50268 16.3815 7.34216 16.1075C7.18485 15.8434 7.1001 15.5425 7.09649 15.2351C7.09289 14.9278 7.17055 14.6249 7.32162 14.3572L10.4638 8.71958C10.6256 8.44017 10.858 8.2082 11.1377 8.04694C11.4174 7.88568 11.7347 7.80079 12.0575 7.80079C12.3804 7.80079 12.6976 7.88568 12.9773 8.04694C13.2571 8.2082 13.4895 8.44017 13.6513 8.71958L16.7857 14.353C16.937 14.621 17.0149 14.9243 17.0114 15.2322C17.0079 15.54 16.9232 15.8415 16.7658 16.1061C16.6054 16.3801 16.3755 16.607 16.0995 16.764C15.8234 16.9209 15.5109 17.0023 15.1933 17ZM12.0561 9.20833C11.9845 9.20664 11.9137 9.22439 11.8514 9.25968C11.789 9.29498 11.7374 9.34651 11.702 9.40879L8.55978 15.0464C8.52941 15.0987 8.51377 15.1583 8.51452 15.2188C8.51527 15.2793 8.53238 15.3384 8.56403 15.39C8.60031 15.451 8.65233 15.5011 8.71463 15.5351C8.77694 15.5692 8.84725 15.5858 8.9182 15.5833H15.1962C15.2672 15.5854 15.3375 15.5685 15.3998 15.5342C15.4621 15.5 15.5141 15.4497 15.5503 15.3885C15.5814 15.3361 15.5979 15.2763 15.5979 15.2154C15.5979 15.1544 15.5814 15.0946 15.5503 15.0422L12.411 9.4095C12.3757 9.34687 12.324 9.29504 12.2615 9.2596C12.199 9.22415 12.128 9.20643 12.0561 9.20833ZM5.66482 16.2917C5.66482 16.1038 5.5902 15.9236 5.45736 15.7908C5.32452 15.658 5.14435 15.5833 4.95649 15.5833H2.37107C2.20542 15.5832 2.04264 15.5401 1.8987 15.4581C1.75476 15.3761 1.63461 15.2581 1.55003 15.1157C1.46546 14.9732 1.41936 14.8112 1.41627 14.6456C1.41318 14.48 1.4532 14.3164 1.53241 14.1709L6.24424 5.45842C6.32483 5.30656 6.44547 5.17966 6.59306 5.09151C6.74066 5.00335 6.90958 4.95729 7.08149 4.95833C7.25357 4.95693 7.42274 5.00282 7.57051 5.09101C7.71829 5.1792 7.83899 5.30629 7.91945 5.45842L8.78858 7.06421C8.83285 7.14607 8.89282 7.2184 8.96505 7.27708C9.03728 7.33576 9.12037 7.37965 9.20956 7.40622C9.29875 7.43279 9.3923 7.44154 9.48487 7.43195C9.57744 7.42237 9.66722 7.39465 9.74907 7.35038C9.83093 7.3061 9.90327 7.24613 9.96195 7.1739C10.0206 7.10167 10.0645 7.01858 10.0911 6.92939C10.1177 6.8402 10.1264 6.74665 10.1168 6.65408C10.1072 6.56151 10.0795 6.47173 10.0352 6.38988L9.16683 4.78479C8.96384 4.40884 8.66295 4.09479 8.29602 3.87591C7.9291 3.65703 7.5098 3.54147 7.08255 3.54147C6.6553 3.54147 6.23601 3.65703 5.86908 3.87591C5.50216 4.09479 5.20127 4.40884 4.99828 4.78479L0.28574 13.4973C0.0903137 13.8587 -0.00796907 14.2646 0.000505101 14.6753C0.00897927 15.0861 0.12392 15.4876 0.334085 15.8406C0.54425 16.1936 0.842443 16.486 1.1995 16.6893C1.55655 16.8925 1.96024 16.9996 2.37107 17H4.95649C5.14435 17 5.32452 16.9254 5.45736 16.7925C5.5902 16.6597 5.66482 16.4795 5.66482 16.2917Z" fill="currentColor"></path>
  </symbol>
  <symbol fill="none" xmlns="http://www.w3.org/2000/svg" viewBox="0 0 16 16" id="resail">
    <path d="M8 3.33333C8.36867 3.33333 8.66667 3.63133 8.66667 4V7.91733C8.66667 8.15 8.546 8.36467 8.34733 8.48667L5.40867 10.284C5.30067 10.3507 5.18 10.3813 5.06133 10.3813C4.83667 10.3813 4.618 10.268 4.492 10.062C4.3 9.748 4.39867 9.338 4.71333 9.14533L7.33333 7.54333V4C7.33333 3.63133 7.63133 3.33333 8 3.33333ZM14.6667 8.66667H12C11.6313 8.66667 11.3333 8.96467 11.3333 9.33333C11.3333 9.702 11.6313 10 12 10H13.712L10.826 12.8853C10.6973 13.014 10.47 13.0147 10.34 12.8853L9.604 12.1493C8.97 11.514 7.86533 11.514 7.22933 12.1493L4.52733 14.8627C4.26733 15.124 4.26867 15.546 4.52933 15.806C4.65933 15.9353 4.83 16 5 16C5.17133 16 5.34267 15.934 5.47267 15.804L8.174 13.0907C8.30267 12.962 8.53 12.9613 8.66 13.0907L9.396 13.8267C10.03 14.462 11.136 14.4613 11.7693 13.8267L14.6667 10.93V12.666C14.6667 13.0347 14.9647 13.3327 15.3333 13.3327C15.702 13.3327 16 13.0347 16 12.666V9.99933C16 9.264 15.402 8.666 14.6667 8.666V8.66667ZM1.33333 8C1.33333 4.324 4.324 1.33333 8 1.33333C11.2187 1.33333 13.976 3.62667 14.5567 6.78733C14.624 7.14933 14.9673 7.39333 15.3327 7.32267C15.6947 7.256 15.934 6.90867 15.868 6.54667C15.1713 2.75333 11.862 0 8 0C3.58867 0 0 3.58867 0 8C0 10.2107 0.928 12.344 2.54533 13.852C2.67333 13.972 2.83733 14.0313 3 14.0313C3.17867 14.0313 3.356 13.9607 3.48733 13.8193C3.73867 13.5507 3.72333 13.1287 3.454 12.8773C2.10667 11.62 1.33267 9.84267 1.33267 8.00067L1.33333 8Z" fill="currentColor"></path>
  </symbol>
  <symbol fill="none" xmlns="http://www.w3.org/2000/svg" viewBox="0 0 16 16" id="capital">
    <path d="M16 3.33333V10C16 11.088 15.476 12.056 14.6667 12.6647V14C14.6667 14.368 14.368 14.6667 14 14.6667C13.632 14.6667 13.3333 14.368 13.3333 14V13.266C13.118 13.31 12.8947 13.3333 12.6667 13.3333H10C9.632 13.3333 9.33333 13.0347 9.33333 12.6667C9.33333 12.2987 9.632 12 10 12H12.6667C13.7693 12 14.6667 11.1027 14.6667 10H14C13.632 10 13.3333 9.70133 13.3333 9.33333C13.3333 8.96533 13.632 8.66667 14 8.66667H14.6667V4.66667H14C13.632 4.66667 13.3333 4.368 13.3333 4C13.3333 3.632 13.632 3.33333 14 3.33333H14.6667C14.6667 2.23067 13.7693 1.33333 12.6667 1.33333H3.33333C2.23067 1.33333 1.33333 2.23067 1.33333 3.33333V4.66667C1.33333 5.03467 1.03467 5.33333 0.666667 5.33333C0.298667 5.33333 0 5.03467 0 4.66667V3.33333C0 1.49533 1.49533 0 3.33333 0H12.6667C14.5047 0 16 1.49533 16 3.33333ZM8 8.33333V13.6667C8 14.9967 6.28 16 4 16C1.72 16 0 14.9967 0 13.6667V8.33333C0 7.00333 1.72 6 4 6C6.28 6 8 7.00333 8 8.33333ZM6.66667 10.1013C5.96933 10.4567 5.04333 10.6667 4 10.6667C2.95667 10.6667 2.03067 10.4567 1.33333 10.1013V11C1.33333 11.3527 2.346 12 4 12C5.654 12 6.66667 11.3527 6.66667 11V10.1013ZM1.33333 8.33333C1.33333 8.686 2.346 9.33333 4 9.33333C5.654 9.33333 6.66667 8.686 6.66667 8.33333C6.66667 7.98067 5.654 7.33333 4 7.33333C2.346 7.33333 1.33333 7.98067 1.33333 8.33333ZM6.66667 13.6667V12.768C5.96933 13.1233 5.04333 13.3333 4 13.3333C2.95667 13.3333 2.03067 13.1233 1.33333 12.768V13.6667C1.33333 14.0193 2.346 14.6667 4 14.6667C5.654 14.6667 6.66667 14.0193 6.66667 13.6667ZM9.59933 9.19933C9.71933 9.28933 9.86 9.33333 9.99933 9.33333C10.202 9.33333 10.402 9.24133 10.5327 9.06733C11.0567 8.37067 11.3333 7.54067 11.3333 6.66667C11.3333 4.46067 9.53933 2.66667 7.33333 2.66667C6.45933 2.66667 5.62933 2.94333 4.93267 3.46733C4.63867 3.68867 4.57867 4.106 4.8 4.40067C5.02133 4.69533 5.43867 4.75467 5.73333 4.53333C6.19733 4.18467 6.75067 4.00067 7.33333 4.00067C8.804 4.00067 10 5.19667 10 6.66733C10 7.25 9.816 7.80333 9.46733 8.26667C9.246 8.56067 9.30533 8.97867 9.6 9.2L9.59933 9.19933Z" fill="currentColor"></path>
  </symbol>
  <symbol fill="none" xmlns="http://www.w3.org/2000/svg" viewBox="0 0 30 10" id="long-arrow">
    <path d="M0.308008 4.226L7.4846 0.0826133C7.77924 -0.0874688 8.15594 0.0134964 8.32608 0.308075C8.49622 0.602716 8.3952 0.979409 8.10062 1.14955L2.91296 4.14463H29.384C29.7242 4.14463 30 4.42048 30 4.76064C30 5.10074 29.7242 5.37666 29.384 5.37666H2.91708L8.10062 8.36945C8.39526 8.53959 8.49622 8.91629 8.32608 9.21093C8.21193 9.40855 8.00495 9.51906 7.79205 9.51906C7.68758 9.51906 7.58162 9.49232 7.4846 9.43639L0.308008 5.29294C0.117413 5.18292 0 4.97951 0 4.75947C0 4.53943 0.117413 4.33602 0.308008 4.226Z" fill="#1CA8B1"></path>
  </symbol>
</svg>